<svg xmlns="http://www.w3.org/2000/svg" xmlns:xlink="http://www.w3.org/1999/xlink" contentStyleType="text/css" data-diagram-type="CLASS" height="1661px" preserveAspectRatio="none" style="width:1327px;height:1661px;background:#FFFFFF;" version="1.1" viewBox="0 0 1327 1661" width="1327px" zoomAndPan="magnify"><defs/><g><!--class IAnnotation--><g class="entity" data-entity="IAnnotation" data-source-line="4" data-uid="ent0002" id="entity_IAnnotation"><rect fill="#F1F1F1" height="390.2344" rx="2.5" ry="2.5" style="stroke:#181818;stroke-width:0.5;" width="422.6279" x="7" y="630.42"/><ellipse cx="173.6123" cy="646.42" fill="#B4A7E5" rx="11" ry="11" style="stroke:#181818;stroke-width:1;"/><path d="M169.5342,642.1856 L169.5342,640.0294 L176.9248,640.0294 L176.9248,642.1856 L174.4561,642.1856 L174.4561,650.2638 L176.9248,650.2638 L176.9248,652.42 L169.5342,652.42 L169.5342,650.2638 L172.0029,650.2638 L172.0029,642.1856 L169.5342,642.1856 Z " fill="#000000"/><text fill="#000000" font-family="sans-serif" font-size="14" font-style="italic" lengthAdjust="spacing" textLength="80.9033" x="194.1123" y="651.2667">IAnnotation</text><line style="stroke:#181818;stroke-width:0.5;" x1="8" x2="428.6279" y1="662.42" y2="662.42"/><ellipse cx="18" cy="676.0684" fill="none" rx="3" ry="3" style="stroke:#038048;stroke-width:1;"/><text fill="#000000" font-family="sans-serif" font-size="14" lengthAdjust="spacing" textLength="62.1318" x="27" y="679.4151">id: string</text><ellipse cx="18" cy="692.3653" fill="none" rx="3" ry="3" style="stroke:#038048;stroke-width:1;"/><text fill="#000000" font-family="sans-serif" font-size="14" lengthAdjust="spacing" textLength="159.8721" x="27" y="695.712">scenePosition: Vector2</text><ellipse cx="18" cy="708.6622" fill="none" rx="3" ry="3" style="stroke:#038048;stroke-width:1;"/><text fill="#000000" font-family="sans-serif" font-size="14" lengthAdjust="spacing" textLength="110.5234" x="27" y="712.0089">isDirty: boolean</text><ellipse cx="18" cy="724.9591" fill="none" rx="3" ry="3" style="stroke:#038048;stroke-width:1;"/><text fill="#000000" font-family="sans-serif" font-size="14" lengthAdjust="spacing" textLength="137.0127" x="27" y="728.3057">isSelected: boolean</text><ellipse cx="18" cy="741.2559" fill="none" rx="3" ry="3" style="stroke:#038048;stroke-width:1;"/><text fill="#000000" font-family="sans-serif" font-size="14" lengthAdjust="spacing" textLength="123.9014" x="27" y="744.6026">isPinned: boolean</text><ellipse cx="18" cy="757.5528" fill="none" rx="3" ry="3" style="stroke:#038048;stroke-width:1;"/><text fill="#000000" font-family="sans-serif" font-size="14" lengthAdjust="spacing" textLength="86.0439" x="27" y="760.8995">frame: Box2</text><ellipse cx="18" cy="773.8497" fill="none" rx="3" ry="3" style="stroke:#038048;stroke-width:1;"/><text fill="#000000" font-family="sans-serif" font-size="14" lengthAdjust="spacing" textLength="112.6426" x="27" y="777.1964">bounds: Bounds</text><line style="stroke:#181818;stroke-width:0.5;" x1="8" x2="428.6279" y1="784.4981" y2="784.4981"/><ellipse cx="18" cy="798.1466" fill="#84BE84" rx="3" ry="3" style="stroke:#038048;stroke-width:1;"/><text fill="#000000" font-family="sans-serif" font-size="14" lengthAdjust="spacing" textLength="272.6377" x="27" y="801.4932">zoom(zoom: number, animated?): void</text><ellipse cx="18" cy="814.4434" fill="#84BE84" rx="3" ry="3" style="stroke:#038048;stroke-width:1;"/><text fill="#000000" font-family="sans-serif" font-size="14" lengthAdjust="spacing" textLength="396.6279" x="27" y="817.7901">setSelected(selected: boolean, animated: boolean): void</text><ellipse cx="18" cy="830.7403" fill="#84BE84" rx="3" ry="3" style="stroke:#038048;stroke-width:1;"/><text fill="#000000" font-family="sans-serif" font-size="14" lengthAdjust="spacing" textLength="372.4424" x="27" y="834.087">setPinned(pinned: boolean, animated: boolean): void</text><ellipse cx="18" cy="847.0372" fill="#84BE84" rx="3" ry="3" style="stroke:#038048;stroke-width:1;"/><text fill="#000000" font-family="sans-serif" font-size="14" lengthAdjust="spacing" textLength="291.0127" x="27" y="850.3839">updateScreenPosition(pos: Vector2): void</text><text fill="#000000" font-family="sans-serif" font-size="14" lengthAdjust="spacing" textLength="4.4502" x="27" y="866.6807">&#160;</text><ellipse cx="18" cy="879.6309" fill="#84BE84" rx="3" ry="3" style="stroke:#038048;stroke-width:1;"/><text fill="#000000" font-family="sans-serif" font-size="14" lengthAdjust="spacing" textLength="241.9717" x="27" y="882.9776">pointInside(pos: Vector2): boolean</text><ellipse cx="18" cy="895.9278" fill="#84BE84" rx="3" ry="3" style="stroke:#038048;stroke-width:1;"/><text fill="#000000" font-family="sans-serif" font-size="14" lengthAdjust="spacing" textLength="209.8633" x="27" y="899.2745">intersect(rect: Box2): boolean</text><text fill="#000000" font-family="sans-serif" font-size="14" lengthAdjust="spacing" textLength="4.4502" x="27" y="915.5714">&#160;</text><ellipse cx="18" cy="928.5216" fill="#84BE84" rx="3" ry="3" style="stroke:#038048;stroke-width:1;"/><text fill="#000000" font-family="sans-serif" font-size="14" lengthAdjust="spacing" textLength="313.3115" x="27" y="931.8682">draw(ctx: CanvasRenderingContext2D): void</text><ellipse cx="18" cy="944.8184" fill="#84BE84" rx="3" ry="3" style="stroke:#038048;stroke-width:1;"/><text fill="#000000" font-family="sans-serif" font-size="14" lengthAdjust="spacing" textLength="250.3867" x="27" y="948.1651">shouldDraw(screen: Box2): boolean</text><ellipse cx="18" cy="961.1153" fill="#84BE84" rx="3" ry="3" style="stroke:#038048;stroke-width:1;"/><text fill="#000000" font-family="sans-serif" font-size="14" lengthAdjust="spacing" textLength="192.2402" x="27" y="964.462">style(styleSheet: any): void</text><text fill="#000000" font-family="sans-serif" font-size="14" lengthAdjust="spacing" textLength="4.4502" x="27" y="980.7589">&#160;</text><ellipse cx="18" cy="993.7091" fill="#84BE84" rx="3" ry="3" style="stroke:#038048;stroke-width:1;"/><text fill="#000000" font-family="sans-serif" font-size="14" lengthAdjust="spacing" textLength="188.6992" x="27" y="997.0557">get renderOrder(): number</text><ellipse cx="18" cy="1010.0059" fill="#84BE84" rx="3" ry="3" style="stroke:#038048;stroke-width:1;"/><text fill="#000000" font-family="sans-serif" font-size="14" lengthAdjust="spacing" textLength="238.9844" x="27" y="1013.3526">get shouldSelectOnTap(): boolean</text></g><!--class IAnnotationIndoor--><g class="entity" data-entity="IAnnotationIndoor" data-source-line="29" data-uid="ent0003" id="entity_IAnnotationIndoor"><rect fill="#F1F1F1" height="80.5938" rx="2.5" ry="2.5" style="stroke:#181818;stroke-width:0.5;" width="157.6787" x="611.47" y="1573.71"/><ellipse cx="626.47" cy="1589.71" fill="#B4A7E5" rx="11" ry="11" style="stroke:#181818;stroke-width:1;"/><path d="M622.3919,1585.4756 L622.3919,1583.3194 L629.7825,1583.3194 L629.7825,1585.4756 L627.3138,1585.4756 L627.3138,1593.5538 L629.7825,1593.5538 L629.7825,1595.71 L622.3919,1595.71 L622.3919,1593.5538 L624.8606,1593.5538 L624.8606,1585.4756 L622.3919,1585.4756 Z " fill="#000000"/><text fill="#000000" font-family="sans-serif" font-size="14" font-style="italic" lengthAdjust="spacing" textLength="125.6787" x="640.47" y="1594.5567">IAnnotationIndoor</text><line style="stroke:#181818;stroke-width:0.5;" x1="612.47" x2="768.1487" y1="1605.71" y2="1605.71"/><ellipse cx="622.47" cy="1619.3584" fill="none" rx="3" ry="3" style="stroke:#038048;stroke-width:1;"/><text fill="#000000" font-family="sans-serif" font-size="14" lengthAdjust="spacing" textLength="79.6592" x="631.47" y="1622.7051">level: Level</text><ellipse cx="622.47" cy="1635.6553" fill="none" rx="3" ry="3" style="stroke:#038048;stroke-width:1;"/><text fill="#000000" font-family="sans-serif" font-size="14" lengthAdjust="spacing" textLength="122.0352" x="631.47" y="1639.002">building: Building</text><line style="stroke:#181818;stroke-width:0.5;" x1="612.47" x2="768.1487" y1="1646.3038" y2="1646.3038"/></g><!--class Shape2D--><g class="entity" data-entity="Shape2D" data-source-line="37" data-uid="ent0004" id="entity_Shape2D"><rect fill="#F1F1F1" height="145.7813" rx="2.5" ry="2.5" style="stroke:#181818;stroke-width:0.5;" width="436.9834" x="235.82" y="7"/><ellipse cx="418.2985" cy="23" fill="#ADD1B2" rx="11" ry="11" style="stroke:#181818;stroke-width:1;"/><path d="M421.2673,28.6406 Q420.6891,28.9375 420.0485,29.0781 Q419.4079,29.2344 418.7048,29.2344 Q416.2048,29.2344 414.8766,27.5938 Q413.5641,25.9375 413.5641,22.8125 Q413.5641,19.6875 414.8766,18.0313 Q416.2048,16.375 418.7048,16.375 Q419.4079,16.375 420.0485,16.5313 Q420.7048,16.6875 421.2673,16.9844 L421.2673,19.7031 Q420.6423,19.125 420.0485,18.8594 Q419.4548,18.5781 418.8298,18.5781 Q417.486,18.5781 416.7985,19.6563 Q416.111,20.7188 416.111,22.8125 Q416.111,24.9063 416.7985,25.9844 Q417.486,27.0469 418.8298,27.0469 Q419.4548,27.0469 420.0485,26.7813 Q420.6423,26.5 421.2673,25.9219 L421.2673,28.6406 Z " fill="#000000"/><text fill="#000000" font-family="sans-serif" font-size="14" lengthAdjust="spacing" textLength="63.5264" x="438.7985" y="27.8467">Shape2D</text><line style="stroke:#181818;stroke-width:0.5;" x1="236.82" x2="671.8034" y1="39" y2="39"/><ellipse cx="246.82" cy="52.6484" fill="none" rx="3" ry="3" style="stroke:#038048;stroke-width:1;"/><text fill="#000000" font-family="sans-serif" font-size="14" lengthAdjust="spacing" textLength="86.0439" x="255.82" y="55.9951">frame: Box2</text><ellipse cx="246.82" cy="68.9453" fill="none" rx="3" ry="3" style="stroke:#038048;stroke-width:1;"/><text fill="#000000" font-family="sans-serif" font-size="14" lengthAdjust="spacing" textLength="112.6426" x="255.82" y="72.292">bounds: Bounds</text><ellipse cx="246.82" cy="85.2422" fill="none" rx="3" ry="3" style="stroke:#038048;stroke-width:1;"/><text fill="#000000" font-family="sans-serif" font-size="14" lengthAdjust="spacing" textLength="136.7188" x="255.82" y="88.5889">boundingBox: Box2</text><ellipse cx="246.82" cy="101.5391" fill="none" rx="3" ry="3" style="stroke:#038048;stroke-width:1;"/><text fill="#000000" font-family="sans-serif" font-size="14" lengthAdjust="spacing" textLength="165.6279" x="255.82" y="104.8857">screenPosition: Vector2</text><line style="stroke:#181818;stroke-width:0.5;" x1="236.82" x2="671.8034" y1="112.1875" y2="112.1875"/><ellipse cx="246.82" cy="125.8359" fill="#84BE84" rx="3" ry="3" style="stroke:#038048;stroke-width:1;"/><text fill="#000000" font-family="sans-serif" font-size="14" lengthAdjust="spacing" textLength="291.0127" x="255.82" y="129.1826">updateScreenPosition(pos: Vector2): void</text><ellipse cx="246.82" cy="142.1328" fill="#84BE84" rx="3" ry="3" style="stroke:#038048;stroke-width:1;"/><text fill="#000000" font-family="sans-serif" font-size="14" lengthAdjust="spacing" textLength="410.9834" x="255.82" y="145.4795">updateBBox(width: number, height: number, offset?): void</text></g><!--class Annotation--><g class="entity" data-entity="Annotation" data-source-line="47" data-uid="ent0005" id="entity_Annotation"><rect fill="#F1F1F1" height="357.6406" rx="2.5" ry="2.5" style="stroke:#181818;stroke-width:0.5;" width="422.6279" x="243" y="212.78"/><ellipse cx="411.6768" cy="228.78" fill="#ADD1B2" rx="11" ry="11" style="stroke:#181818;stroke-width:1;"/><path d="M414.6455,234.4206 Q414.0674,234.7175 413.4268,234.8581 Q412.7861,235.0144 412.083,235.0144 Q409.583,235.0144 408.2549,233.3737 Q406.9424,231.7175 406.9424,228.5925 Q406.9424,225.4675 408.2549,223.8112 Q409.583,222.155 412.083,222.155 Q412.7861,222.155 413.4268,222.3112 Q414.083,222.4675 414.6455,222.7644 L414.6455,225.4831 Q414.0205,224.905 413.4268,224.6394 Q412.833,224.3581 412.208,224.3581 Q410.8643,224.3581 410.1768,225.4362 Q409.4893,226.4987 409.4893,228.5925 Q409.4893,230.6862 410.1768,231.7644 Q410.8643,232.8269 412.208,232.8269 Q412.833,232.8269 413.4268,232.5612 Q414.0205,232.28 414.6455,231.7019 L414.6455,234.4206 Z " fill="#000000"/><text fill="#000000" font-family="sans-serif" font-size="14" lengthAdjust="spacing" textLength="76.7744" x="432.1768" y="233.6267">Annotation</text><line style="stroke:#181818;stroke-width:0.5;" x1="244" x2="664.6279" y1="244.78" y2="244.78"/><ellipse cx="254" cy="258.4284" fill="none" rx="3" ry="3" style="stroke:#038048;stroke-width:1;"/><text fill="#000000" font-family="sans-serif" font-size="14" lengthAdjust="spacing" textLength="62.1318" x="263" y="261.7751">id: string</text><ellipse cx="254" cy="274.7253" fill="none" rx="3" ry="3" style="stroke:#038048;stroke-width:1;"/><text fill="#000000" font-family="sans-serif" font-size="14" lengthAdjust="spacing" textLength="159.8721" x="263" y="278.072">scenePosition: Vector2</text><ellipse cx="254" cy="291.0222" fill="none" rx="3" ry="3" style="stroke:#038048;stroke-width:1;"/><text fill="#000000" font-family="sans-serif" font-size="14" lengthAdjust="spacing" textLength="110.5234" x="263" y="294.3689">isDirty: boolean</text><ellipse cx="254" cy="307.3191" fill="none" rx="3" ry="3" style="stroke:#038048;stroke-width:1;"/><text fill="#000000" font-family="sans-serif" font-size="14" lengthAdjust="spacing" textLength="137.0127" x="263" y="310.6657">isSelected: boolean</text><ellipse cx="254" cy="323.6159" fill="none" rx="3" ry="3" style="stroke:#038048;stroke-width:1;"/><text fill="#000000" font-family="sans-serif" font-size="14" lengthAdjust="spacing" textLength="123.9014" x="263" y="326.9626">isPinned: boolean</text><text fill="#000000" font-family="sans-serif" font-size="14" lengthAdjust="spacing" textLength="4.4502" x="263" y="343.2595">&#160;</text><polygon fill="none" points="254,351.2097,258,355.2097,254,359.2097,250,355.2097" style="stroke:#B38D22;stroke-width:1;"/><text fill="#000000" font-family="sans-serif" font-size="14" lengthAdjust="spacing" textLength="155.2236" x="263" y="359.5564">currentZoom: number</text><polygon fill="none" points="254,367.5066,258,371.5066,254,375.5066,250,371.5066" style="stroke:#B38D22;stroke-width:1;"/><text fill="#000000" font-family="sans-serif" font-size="14" lengthAdjust="spacing" textLength="66.4385" x="263" y="375.8532">data: any</text><line style="stroke:#181818;stroke-width:0.5;" x1="244" x2="664.6279" y1="383.155" y2="383.155"/><ellipse cx="254" cy="396.8034" fill="#84BE84" rx="3" ry="3" style="stroke:#038048;stroke-width:1;"/><text fill="#000000" font-family="sans-serif" font-size="14" lengthAdjust="spacing" textLength="188.6992" x="263" y="400.1501">get renderOrder(): number</text><ellipse cx="254" cy="413.1003" fill="#84BE84" rx="3" ry="3" style="stroke:#038048;stroke-width:1;"/><text fill="#000000" font-family="sans-serif" font-size="14" lengthAdjust="spacing" textLength="238.9844" x="263" y="416.447">get shouldSelectOnTap(): boolean</text><text fill="#000000" font-family="sans-serif" font-size="14" lengthAdjust="spacing" textLength="4.4502" x="263" y="432.7439">&#160;</text><ellipse cx="254" cy="445.6941" fill="#84BE84" rx="3" ry="3" style="stroke:#038048;stroke-width:1;"/><text fill="#000000" font-family="sans-serif" font-size="14" lengthAdjust="spacing" textLength="396.6279" x="263" y="449.0407">setSelected(selected: boolean, animated: boolean): void</text><ellipse cx="254" cy="461.9909" fill="#84BE84" rx="3" ry="3" style="stroke:#038048;stroke-width:1;"/><text fill="#000000" font-family="sans-serif" font-size="14" lengthAdjust="spacing" textLength="372.4424" x="263" y="465.3376">setPinned(pinned: boolean, animated: boolean): void</text><ellipse cx="254" cy="478.2878" fill="#84BE84" rx="3" ry="3" style="stroke:#038048;stroke-width:1;"/><text fill="#000000" font-family="sans-serif" font-size="14" lengthAdjust="spacing" textLength="272.6377" x="263" y="481.6345">zoom(zoom: number, animated?): void</text><ellipse cx="254" cy="494.5847" fill="#84BE84" rx="3" ry="3" style="stroke:#038048;stroke-width:1;"/><text fill="#000000" font-family="sans-serif" font-size="14" lengthAdjust="spacing" textLength="241.9717" x="263" y="497.9314">pointInside(pos: Vector2): boolean</text><ellipse cx="254" cy="510.8816" fill="#84BE84" rx="3" ry="3" style="stroke:#038048;stroke-width:1;"/><text fill="#000000" font-family="sans-serif" font-size="14" lengthAdjust="spacing" textLength="209.8633" x="263" y="514.2282">intersect(rect: Box2): boolean</text><ellipse cx="254" cy="527.1784" fill="#84BE84" rx="3" ry="3" style="stroke:#038048;stroke-width:1;"/><text fill="#000000" font-family="sans-serif" font-size="14" lengthAdjust="spacing" textLength="250.3867" x="263" y="530.5251">shouldDraw(screen: Box2): boolean</text><ellipse cx="254" cy="543.4753" fill="#84BE84" rx="3" ry="3" style="stroke:#038048;stroke-width:1;"/><text fill="#000000" font-family="sans-serif" font-size="14" lengthAdjust="spacing" textLength="313.3115" x="263" y="546.822">draw(ctx: CanvasRenderingContext2D): void</text><ellipse cx="254" cy="559.7722" fill="#84BE84" rx="3" ry="3" style="stroke:#038048;stroke-width:1;"/><text fill="#000000" font-family="sans-serif" font-size="14" lengthAdjust="spacing" textLength="192.2402" x="263" y="563.1189">style(styleSheet: any): void</text></g><!--class DetailLevelAnnotation--><g class="entity" data-entity="DetailLevelAnnotation" data-source-line="70" data-uid="ent0006" id="entity_DetailLevelAnnotation"><rect fill="#F1F1F1" height="145.7813" rx="2.5" ry="2.5" style="stroke:#181818;stroke-width:0.5;" width="451.8652" x="464.38" y="752.65"/><ellipse cx="553.1398" cy="768.65" fill="#ADD1B2" rx="11" ry="11" style="stroke:#181818;stroke-width:1;"/><path d="M556.1085,774.2906 Q555.5304,774.5875 554.8898,774.7281 Q554.2491,774.8844 553.546,774.8844 Q551.046,774.8844 549.7179,773.2438 Q548.4054,771.5875 548.4054,768.4625 Q548.4054,765.3375 549.7179,763.6813 Q551.046,762.025 553.546,762.025 Q554.2491,762.025 554.8898,762.1813 Q555.546,762.3375 556.1085,762.6344 L556.1085,765.3531 Q555.4835,764.775 554.8898,764.5094 Q554.296,764.2281 553.671,764.2281 Q552.3273,764.2281 551.6398,765.3063 Q550.9523,766.3688 550.9523,768.4625 Q550.9523,770.5563 551.6398,771.6344 Q552.3273,772.6969 553.671,772.6969 Q554.296,772.6969 554.8898,772.4313 Q555.4835,772.15 556.1085,771.5719 L556.1085,774.2906 Z " fill="#000000"/><text fill="#000000" font-family="sans-serif" font-size="14" lengthAdjust="spacing" textLength="155.2168" x="573.6398" y="773.4967">DetailLevelAnnotation</text><rect fill="#FFFFFF" height="15.9688" style="stroke:#181818;stroke-width:1;stroke-dasharray:2.0,2.0;" width="108.6289" x="810.6163" y="749.65"/><text fill="#000000" font-family="sans-serif" font-size="12" font-style="italic" lengthAdjust="spacing" textLength="106.6289" x="811.6163" y="761.7887">DetailLevel, State</text><line style="stroke:#181818;stroke-width:0.5;" x1="465.38" x2="915.2452" y1="784.65" y2="784.65"/><polygon fill="none" points="475.38,793.2984,479.38,797.2984,475.38,801.2984,471.38,797.2984" style="stroke:#B38D22;stroke-width:1;"/><text fill="#000000" font-family="sans-serif" font-size="14" lengthAdjust="spacing" textLength="164.1582" x="484.38" y="801.6451">detailLevel: DetailLevel</text><polygon fill="none" points="475.38,809.5953,479.38,813.5953,475.38,817.5953,471.38,813.5953" style="stroke:#B38D22;stroke-width:1;"/><text fill="#000000" font-family="sans-serif" font-size="14" lengthAdjust="spacing" textLength="81.6895" x="484.38" y="817.942">state: State</text><line style="stroke:#181818;stroke-width:0.5;" x1="465.38" x2="915.2452" y1="825.2438" y2="825.2438"/><polygon fill="#FFFF44" points="475.38,833.8922,479.38,837.8922,475.38,841.8922,471.38,837.8922" style="stroke:#B38D22;stroke-width:1;"/><text fill="#000000" font-family="sans-serif" font-size="14" lengthAdjust="spacing" textLength="425.8652" x="484.38" y="842.2389">evaluteDetailLevel(dd: DetailLevel, mapSize: number): State</text><text fill="#000000" font-family="sans-serif" font-size="14" lengthAdjust="spacing" textLength="4.4502" x="484.38" y="858.5357">&#160;</text><ellipse cx="475.38" cy="871.4859" fill="#84BE84" rx="3" ry="3" style="stroke:#038048;stroke-width:1;"/><text fill="#000000" font-family="sans-serif" font-size="14" lengthAdjust="spacing" textLength="330.3467" x="484.38" y="874.8326">zoom(zoom: number, animated: boolean): void</text><polygon fill="#FFFF44" points="475.38,882.7828,479.38,886.7828,475.38,890.7828,471.38,886.7828" style="stroke:#B38D22;stroke-width:1;"/><text fill="#000000" font-family="sans-serif" font-size="14" lengthAdjust="spacing" textLength="360.5752" x="484.38" y="891.1295">changeState(state: State, animated: boolean): void</text></g><!--class AnimatedAnnotation--><g class="entity" data-entity="AnimatedAnnotation" data-source-line="79" data-uid="ent0007" id="entity_AnimatedAnnotation"><rect fill="#F1F1F1" height="194.6719" rx="2.5" ry="2.5" style="stroke:#181818;stroke-width:0.5;" width="501.5283" x="439.55" y="1080.66"/><ellipse cx="558.5896" cy="1096.66" fill="#ADD1B2" rx="11" ry="11" style="stroke:#181818;stroke-width:1;"/><path d="M561.5583,1102.3006 Q560.9802,1102.5975 560.3396,1102.7381 Q559.6989,1102.8944 558.9958,1102.8944 Q556.4958,1102.8944 555.1677,1101.2538 Q553.8552,1099.5975 553.8552,1096.4725 Q553.8552,1093.3475 555.1677,1091.6913 Q556.4958,1090.035 558.9958,1090.035 Q559.6989,1090.035 560.3396,1090.1913 Q560.9958,1090.3475 561.5583,1090.6444 L561.5583,1093.3631 Q560.9333,1092.785 560.3396,1092.5194 Q559.7458,1092.2381 559.1208,1092.2381 Q557.7771,1092.2381 557.0896,1093.3163 Q556.4021,1094.3788 556.4021,1096.4725 Q556.4021,1098.5663 557.0896,1099.6444 Q557.7771,1100.7069 559.1208,1100.7069 Q559.7458,1100.7069 560.3396,1100.4413 Q560.9333,1100.16 561.5583,1099.5819 L561.5583,1102.3006 Z " fill="#000000"/><text fill="#000000" font-family="sans-serif" font-size="14" lengthAdjust="spacing" textLength="144.3203" x="579.0896" y="1101.5067">AnimatedAnnotation</text><rect fill="#FFFFFF" height="15.9688" style="stroke:#181818;stroke-width:1;stroke-dasharray:2.0,2.0;" width="108.6289" x="835.4494" y="1077.66"/><text fill="#000000" font-family="sans-serif" font-size="12" font-style="italic" lengthAdjust="spacing" textLength="106.6289" x="836.4494" y="1089.7987">DetailLevel, State</text><line style="stroke:#181818;stroke-width:0.5;" x1="440.55" x2="940.0783" y1="1112.66" y2="1112.66"/><ellipse cx="450.55" cy="1126.3084" fill="none" rx="3" ry="3" style="stroke:#038048;stroke-width:1;"/><text fill="#000000" font-family="sans-serif" font-size="14" lengthAdjust="spacing" textLength="186.5049" x="459.55" y="1129.6551">selectAnimation: Animator</text><ellipse cx="450.55" cy="1142.6053" fill="none" rx="3" ry="3" style="stroke:#038048;stroke-width:1;"/><text fill="#000000" font-family="sans-serif" font-size="14" lengthAdjust="spacing" textLength="205.5977" x="459.55" y="1145.952">deSelectAnimation: Animator</text><ellipse cx="450.55" cy="1158.9022" fill="none" rx="3" ry="3" style="stroke:#038048;stroke-width:1;"/><text fill="#000000" font-family="sans-serif" font-size="14" lengthAdjust="spacing" textLength="226.4814" x="459.55" y="1162.2489">changeStateAnimator: Animator</text><line style="stroke:#181818;stroke-width:0.5;" x1="440.55" x2="940.0783" y1="1169.5506" y2="1169.5506"/><polygon fill="#FFFF44" points="450.55,1178.1991,454.55,1182.1991,450.55,1186.1991,446.55,1182.1991" style="stroke:#B38D22;stroke-width:1;"/><text fill="#000000" font-family="sans-serif" font-size="14" lengthAdjust="spacing" textLength="103.1338" x="459.55" y="1186.5457">onAnim(): void</text><polygon fill="#FFFF44" points="450.55,1194.4959,454.55,1198.4959,450.55,1202.4959,446.55,1198.4959" style="stroke:#B38D22;stroke-width:1;"/><text fill="#000000" font-family="sans-serif" font-size="14" lengthAdjust="spacing" textLength="131.5508" x="459.55" y="1202.8426">onPinSelect(): void</text><polygon fill="#FFFF44" points="450.55,1210.7928,454.55,1214.7928,450.55,1218.7928,446.55,1214.7928" style="stroke:#B38D22;stroke-width:1;"/><text fill="#000000" font-family="sans-serif" font-size="14" lengthAdjust="spacing" textLength="475.5283" x="459.55" y="1219.1395">animateChangeState(animator: Animator, animated: boolean): void</text><text fill="#000000" font-family="sans-serif" font-size="14" lengthAdjust="spacing" textLength="4.4502" x="459.55" y="1235.4364">&#160;</text><ellipse cx="450.55" cy="1248.3866" fill="#84BE84" rx="3" ry="3" style="stroke:#038048;stroke-width:1;"/><text fill="#000000" font-family="sans-serif" font-size="14" lengthAdjust="spacing" textLength="396.6279" x="459.55" y="1251.7332">setSelected(selected: boolean, animated: boolean): void</text><ellipse cx="450.55" cy="1264.6834" fill="#84BE84" rx="3" ry="3" style="stroke:#038048;stroke-width:1;"/><text fill="#000000" font-family="sans-serif" font-size="14" lengthAdjust="spacing" textLength="372.4424" x="459.55" y="1268.0301">setPinned(pinned: boolean, animated: boolean): void</text></g><!--class OccupantAnnotation--><g class="entity" data-entity="OccupantAnnotation" data-source-line="95" data-uid="ent0008" id="entity_OccupantAnnotation"><rect fill="#F1F1F1" height="178.375" rx="2.5" ry="2.5" style="stroke:#181818;stroke-width:0.5;" width="396.9453" x="59.84" y="1335.33"/><ellipse cx="182.1178" cy="1351.33" fill="#ADD1B2" rx="11" ry="11" style="stroke:#181818;stroke-width:1;"/><path d="M185.0866,1356.9706 Q184.5085,1357.2675 183.8678,1357.4081 Q183.2272,1357.5644 182.5241,1357.5644 Q180.0241,1357.5644 178.696,1355.9238 Q177.3835,1354.2675 177.3835,1351.1425 Q177.3835,1348.0175 178.696,1346.3613 Q180.0241,1344.705 182.5241,1344.705 Q183.2272,1344.705 183.8678,1344.8613 Q184.5241,1345.0175 185.0866,1345.3144 L185.0866,1348.0331 Q184.4616,1347.455 183.8678,1347.1894 Q183.2741,1346.9081 182.6491,1346.9081 Q181.3053,1346.9081 180.6178,1347.9863 Q179.9303,1349.0488 179.9303,1351.1425 Q179.9303,1353.2363 180.6178,1354.3144 Q181.3053,1355.3769 182.6491,1355.3769 Q183.2741,1355.3769 183.8678,1355.1113 Q184.4616,1354.83 185.0866,1354.2519 L185.0866,1356.9706 Z " fill="#000000"/><text fill="#000000" font-family="sans-serif" font-size="14" lengthAdjust="spacing" textLength="143.8896" x="202.6178" y="1356.1767">OccupantAnnotation</text><line style="stroke:#181818;stroke-width:0.5;" x1="60.84" x2="455.7853" y1="1367.33" y2="1367.33"/><ellipse cx="70.84" cy="1380.9784" fill="none" rx="3" ry="3" style="stroke:#038048;stroke-width:1;"/><text fill="#000000" font-family="sans-serif" font-size="14" lengthAdjust="spacing" textLength="122.0352" x="79.84" y="1384.3251">building: Building</text><ellipse cx="70.84" cy="1397.2753" fill="none" rx="3" ry="3" style="stroke:#038048;stroke-width:1;"/><text fill="#000000" font-family="sans-serif" font-size="14" lengthAdjust="spacing" textLength="79.6592" x="79.84" y="1400.622">level: Level</text><ellipse cx="70.84" cy="1413.5722" fill="none" rx="3" ry="3" style="stroke:#038048;stroke-width:1;"/><text fill="#000000" font-family="sans-serif" font-size="14" lengthAdjust="spacing" textLength="176.3467" x="79.84" y="1416.9189">img: HTMLImageElement</text><line style="stroke:#181818;stroke-width:0.5;" x1="60.84" x2="455.7853" y1="1424.2206" y2="1424.2206"/><ellipse cx="70.84" cy="1437.8691" fill="#84BE84" rx="3" ry="3" style="stroke:#038048;stroke-width:1;"/><text fill="#000000" font-family="sans-serif" font-size="14" lengthAdjust="spacing" textLength="180.9814" x="79.84" y="1441.2157">updateTargetBBox(): void</text><polygon fill="#FFFF44" points="70.84,1449.1659,74.84,1453.1659,70.84,1457.1659,66.84,1453.1659" style="stroke:#B38D22;stroke-width:1;"/><text fill="#000000" font-family="sans-serif" font-size="14" lengthAdjust="spacing" textLength="131.5508" x="79.84" y="1457.5126">onPinSelect(): void</text><ellipse cx="70.84" cy="1470.4628" fill="#84BE84" rx="3" ry="3" style="stroke:#038048;stroke-width:1;"/><text fill="#000000" font-family="sans-serif" font-size="14" lengthAdjust="spacing" textLength="192.2402" x="79.84" y="1473.8095">style(styleSheet: any): void</text><ellipse cx="70.84" cy="1486.7597" fill="#84BE84" rx="3" ry="3" style="stroke:#038048;stroke-width:1;"/><text fill="#000000" font-family="sans-serif" font-size="14" lengthAdjust="spacing" textLength="370.9453" x="79.84" y="1490.1064">measureText(ctx: CanvasRenderingContext2D): void</text><ellipse cx="70.84" cy="1503.0566" fill="#84BE84" rx="3" ry="3" style="stroke:#038048;stroke-width:1;"/><text fill="#000000" font-family="sans-serif" font-size="14" lengthAdjust="spacing" textLength="313.3115" x="79.84" y="1506.4032">draw(ctx: CanvasRenderingContext2D): void</text></g><!--class AttractionAnnotation--><g class="entity" data-entity="AttractionAnnotation" data-source-line="107" data-uid="ent0009" id="entity_AttractionAnnotation"><rect fill="#F1F1F1" height="145.7813" rx="2.5" ry="2.5" style="stroke:#181818;stroke-width:0.5;" width="396.9453" x="491.84" y="1351.63"/><ellipse cx="612.9728" cy="1367.63" fill="#ADD1B2" rx="11" ry="11" style="stroke:#181818;stroke-width:1;"/><path d="M615.9416,1373.2706 Q615.3634,1373.5675 614.7228,1373.7081 Q614.0822,1373.8644 613.3791,1373.8644 Q610.8791,1373.8644 609.5509,1372.2237 Q608.2384,1370.5675 608.2384,1367.4425 Q608.2384,1364.3175 609.5509,1362.6612 Q610.8791,1361.005 613.3791,1361.005 Q614.0822,1361.005 614.7228,1361.1612 Q615.3791,1361.3175 615.9416,1361.6144 L615.9416,1364.3331 Q615.3166,1363.755 614.7228,1363.4894 Q614.1291,1363.2081 613.5041,1363.2081 Q612.1603,1363.2081 611.4728,1364.2862 Q610.7853,1365.3487 610.7853,1367.4425 Q610.7853,1369.5362 611.4728,1370.6144 Q612.1603,1371.6769 613.5041,1371.6769 Q614.1291,1371.6769 614.7228,1371.4112 Q615.3166,1371.13 615.9416,1370.5519 L615.9416,1373.2706 Z " fill="#000000"/><text fill="#000000" font-family="sans-serif" font-size="14" lengthAdjust="spacing" textLength="146.1797" x="633.4728" y="1372.4767">AttractionAnnotation</text><line style="stroke:#181818;stroke-width:0.5;" x1="492.84" x2="887.7853" y1="1383.63" y2="1383.63"/><ellipse cx="502.84" cy="1397.2784" fill="none" rx="3" ry="3" style="stroke:#038048;stroke-width:1;"/><text fill="#000000" font-family="sans-serif" font-size="14" lengthAdjust="spacing" textLength="165.5664" x="511.84" y="1400.6251">targetBuilding: Building</text><ellipse cx="502.84" cy="1413.5753" fill="none" rx="3" ry="3" style="stroke:#038048;stroke-width:1;"/><text fill="#000000" font-family="sans-serif" font-size="14" lengthAdjust="spacing" textLength="230.1865" x="511.84" y="1416.922">contentImg: HTMLImageElement</text><line style="stroke:#181818;stroke-width:0.5;" x1="492.84" x2="887.7853" y1="1424.2237" y2="1424.2237"/><ellipse cx="502.84" cy="1437.8722" fill="#84BE84" rx="3" ry="3" style="stroke:#038048;stroke-width:1;"/><text fill="#000000" font-family="sans-serif" font-size="14" lengthAdjust="spacing" textLength="180.9814" x="511.84" y="1441.2189">updateTargetBBox(): void</text><polygon fill="#FFFF44" points="502.84,1449.1691,506.84,1453.1691,502.84,1457.1691,498.84,1453.1691" style="stroke:#B38D22;stroke-width:1;"/><text fill="#000000" font-family="sans-serif" font-size="14" lengthAdjust="spacing" textLength="131.5508" x="511.84" y="1457.5157">onPinSelect(): void</text><ellipse cx="502.84" cy="1470.4659" fill="#84BE84" rx="3" ry="3" style="stroke:#038048;stroke-width:1;"/><text fill="#000000" font-family="sans-serif" font-size="14" lengthAdjust="spacing" textLength="370.9453" x="511.84" y="1473.8126">measureText(ctx: CanvasRenderingContext2D): void</text><ellipse cx="502.84" cy="1486.7628" fill="#84BE84" rx="3" ry="3" style="stroke:#038048;stroke-width:1;"/><text fill="#000000" font-family="sans-serif" font-size="14" lengthAdjust="spacing" textLength="313.3115" x="511.84" y="1490.1095">draw(ctx: CanvasRenderingContext2D): void</text></g><!--class AmenityAnnotation--><g class="entity" data-entity="AmenityAnnotation" data-source-line="117" data-uid="ent0010" id="entity_AmenityAnnotation"><rect fill="#F1F1F1" height="162.0781" rx="2.5" ry="2.5" style="stroke:#181818;stroke-width:0.5;" width="396.9453" x="923.84" y="1343.48"/><ellipse cx="1050.4928" cy="1359.48" fill="#ADD1B2" rx="11" ry="11" style="stroke:#181818;stroke-width:1;"/><path d="M1053.4616,1365.1206 Q1052.8835,1365.4175 1052.2428,1365.5581 Q1051.6022,1365.7144 1050.8991,1365.7144 Q1048.3991,1365.7144 1047.071,1364.0738 Q1045.7585,1362.4175 1045.7585,1359.2925 Q1045.7585,1356.1675 1047.071,1354.5113 Q1048.3991,1352.855 1050.8991,1352.855 Q1051.6022,1352.855 1052.2428,1353.0113 Q1052.8991,1353.1675 1053.4616,1353.4644 L1053.4616,1356.1831 Q1052.8366,1355.605 1052.2428,1355.3394 Q1051.6491,1355.0581 1051.0241,1355.0581 Q1049.6803,1355.0581 1048.9928,1356.1363 Q1048.3053,1357.1988 1048.3053,1359.2925 Q1048.3053,1361.3863 1048.9928,1362.4644 Q1049.6803,1363.5269 1051.0241,1363.5269 Q1051.6491,1363.5269 1052.2428,1363.2613 Q1052.8366,1362.98 1053.4616,1362.4019 L1053.4616,1365.1206 Z " fill="#000000"/><text fill="#000000" font-family="sans-serif" font-size="14" lengthAdjust="spacing" textLength="135.1396" x="1070.9928" y="1364.3267">AmenityAnnotation</text><line style="stroke:#181818;stroke-width:0.5;" x1="924.84" x2="1319.7853" y1="1375.48" y2="1375.48"/><ellipse cx="934.84" cy="1389.1284" fill="none" rx="3" ry="3" style="stroke:#038048;stroke-width:1;"/><text fill="#000000" font-family="sans-serif" font-size="14" lengthAdjust="spacing" textLength="122.0352" x="943.84" y="1392.4751">building: Building</text><ellipse cx="934.84" cy="1405.4253" fill="none" rx="3" ry="3" style="stroke:#038048;stroke-width:1;"/><text fill="#000000" font-family="sans-serif" font-size="14" lengthAdjust="spacing" textLength="79.6592" x="943.84" y="1408.772">level: Level</text><ellipse cx="934.84" cy="1421.7222" fill="none" rx="3" ry="3" style="stroke:#038048;stroke-width:1;"/><text fill="#000000" font-family="sans-serif" font-size="14" lengthAdjust="spacing" textLength="176.3467" x="943.84" y="1425.0689">img: HTMLImageElement</text><line style="stroke:#181818;stroke-width:0.5;" x1="924.84" x2="1319.7853" y1="1432.3706" y2="1432.3706"/><ellipse cx="934.84" cy="1446.0191" fill="#84BE84" rx="3" ry="3" style="stroke:#038048;stroke-width:1;"/><text fill="#000000" font-family="sans-serif" font-size="14" lengthAdjust="spacing" textLength="180.9814" x="943.84" y="1449.3657">updateTargetBBox(): void</text><polygon fill="#FFFF44" points="934.84,1457.3159,938.84,1461.3159,934.84,1465.3159,930.84,1461.3159" style="stroke:#B38D22;stroke-width:1;"/><text fill="#000000" font-family="sans-serif" font-size="14" lengthAdjust="spacing" textLength="131.5508" x="943.84" y="1465.6626">onPinSelect(): void</text><ellipse cx="934.84" cy="1478.6128" fill="#84BE84" rx="3" ry="3" style="stroke:#038048;stroke-width:1;"/><text fill="#000000" font-family="sans-serif" font-size="14" lengthAdjust="spacing" textLength="370.9453" x="943.84" y="1481.9595">measureText(ctx: CanvasRenderingContext2D): void</text><ellipse cx="934.84" cy="1494.9097" fill="#84BE84" rx="3" ry="3" style="stroke:#038048;stroke-width:1;"/><text fill="#000000" font-family="sans-serif" font-size="14" lengthAdjust="spacing" textLength="313.3115" x="943.84" y="1498.2564">draw(ctx: CanvasRenderingContext2D): void</text></g><!--reverse link Shape2D to Annotation--><g class="link" data-entity-1="Shape2D" data-entity-2="Annotation" data-source-line="131" data-uid="lnk11" id="link_Shape2D_Annotation"><path codeLine="131" d="M454.31,171.12 C454.31,189.26 454.31,191.54 454.31,212.4" fill="none" id="Shape2D-backto-Annotation" style="stroke:#181818;stroke-width:1;"/><polygon fill="none" points="454.31,153.12,448.31,171.12,460.31,171.12,454.31,153.12" style="stroke:#181818;stroke-width:1;"/></g><!--link Annotation to IAnnotation--><g class="link" data-entity-1="Annotation" data-entity-2="IAnnotation" data-source-line="132" data-uid="lnk12" id="link_Annotation_IAnnotation"><path codeLine="132" d="M356.96,570.78 C346.3,590.3 344.0311,594.4543 333.2611,614.1643" fill="none" id="Annotation-to-IAnnotation" style="stroke:#181818;stroke-width:1;stroke-dasharray:7.0,7.0;"/><polygon fill="none" points="324.63,629.96,338.5264,617.0414,327.9959,611.2873,324.63,629.96" style="stroke:#181818;stroke-width:1;"/></g><!--reverse link Annotation to DetailLevelAnnotation--><g class="link" data-entity-1="Annotation" data-entity-2="DetailLevelAnnotation" data-source-line="134" data-uid="lnk13" id="link_Annotation_DetailLevelAnnotation"><path codeLine="134" d="M560.2999,586.5763 C595.0899,650.2563 623.72,702.66 650.84,752.3" fill="none" id="Annotation-backto-DetailLevelAnnotation" style="stroke:#181818;stroke-width:1;"/><polygon fill="none" points="551.67,570.78,555.0345,589.453,565.5654,583.6997,551.67,570.78" style="stroke:#181818;stroke-width:1;"/></g><!--reverse link DetailLevelAnnotation to AnimatedAnnotation--><g class="link" data-entity-1="DetailLevelAnnotation" data-entity-2="AnimatedAnnotation" data-source-line="135" data-uid="lnk14" id="link_DetailLevelAnnotation_AnimatedAnnotation"><path codeLine="135" d="M690.31,916.73 C690.31,969.23 690.31,1022.86 690.31,1080.3" fill="none" id="DetailLevelAnnotation-backto-AnimatedAnnotation" style="stroke:#181818;stroke-width:1;"/><polygon fill="none" points="690.31,898.73,684.31,916.73,696.31,916.73,690.31,898.73" style="stroke:#181818;stroke-width:1;"/></g><!--reverse link AnimatedAnnotation to OccupantAnnotation--><g class="link" data-entity-1="AnimatedAnnotation" data-entity-2="OccupantAnnotation" data-source-line="137" data-uid="lnk15" id="link_AnimatedAnnotation_OccupantAnnotation"><path codeLine="137" d="M503.6048,1284.6757 C469.1848,1304.1557 448.85,1315.67 414.95,1334.86" fill="none" id="AnimatedAnnotation-backto-OccupantAnnotation" style="stroke:#181818;stroke-width:1;"/><polygon fill="none" points="519.27,1275.81,500.6495,1279.454,506.56,1289.8975,519.27,1275.81" style="stroke:#181818;stroke-width:1;"/></g><!--reverse link AnimatedAnnotation to AttractionAnnotation--><g class="link" data-entity-1="AnimatedAnnotation" data-entity-2="AttractionAnnotation" data-source-line="138" data-uid="lnk16" id="link_AnimatedAnnotation_AttractionAnnotation"><path codeLine="138" d="M690.31,1293.64 C690.31,1318.87 690.31,1327.62 690.31,1351.34" fill="none" id="AnimatedAnnotation-backto-AttractionAnnotation" style="stroke:#181818;stroke-width:1;"/><polygon fill="none" points="690.31,1275.64,684.31,1293.64,696.31,1293.64,690.31,1275.64" style="stroke:#181818;stroke-width:1;"/></g><!--reverse link AnimatedAnnotation to AmenityAnnotation--><g class="link" data-entity-1="AnimatedAnnotation" data-entity-2="AmenityAnnotation" data-source-line="139" data-uid="lnk17" id="link_AnimatedAnnotation_AmenityAnnotation"><path codeLine="139" d="M877.0245,1284.677 C916.3845,1306.957 942.17,1321.55 980.16,1343.05" fill="none" id="AnimatedAnnotation-backto-AmenityAnnotation" style="stroke:#181818;stroke-width:1;"/><polygon fill="none" points="861.36,1275.81,874.0688,1289.8985,879.9802,1279.4555,861.36,1275.81" style="stroke:#181818;stroke-width:1;"/></g><!--link OccupantAnnotation to IAnnotationIndoor--><g class="link" data-entity-1="OccupantAnnotation" data-entity-2="IAnnotationIndoor" data-source-line="142" data-uid="lnk18" id="link_OccupantAnnotation_IAnnotationIndoor"><path codeLine="142" d="M457.24,1511.85 C511.72,1535.49 551.138,1552.6038 594.548,1571.4438" fill="none" id="OccupantAnnotation-to-IAnnotationIndoor" style="stroke:#181818;stroke-width:1;stroke-dasharray:7.0,7.0;"/><polygon fill="none" points="611.06,1578.61,596.9368,1565.9398,592.1593,1576.9478,611.06,1578.61" style="stroke:#181818;stroke-width:1;"/></g><!--link AmenityAnnotation to IAnnotationIndoor--><g class="link" data-entity-1="AmenityAnnotation" data-entity-2="IAnnotationIndoor" data-source-line="143" data-uid="lnk19" id="link_AmenityAnnotation_IAnnotationIndoor"><path codeLine="143" d="M936.91,1505.98 C878.21,1531.46 832.9527,1551.1054 785.9127,1571.5154" fill="none" id="AmenityAnnotation-to-IAnnotationIndoor" style="stroke:#181818;stroke-width:1;stroke-dasharray:7.0,7.0;"/><polygon fill="none" points="769.4,1578.68,788.3009,1577.0196,783.5245,1566.0112,769.4,1578.68" style="stroke:#181818;stroke-width:1;"/></g><!--SRC=[pLTBRjim4Dth54Ioi8B6AP2baAP8uW8ra291RNJH7IsERG8IAOYKysbweXwXkvoiGzAoQ4cM5I1jweLi3jyCv_DcA0_8XzsVO436GaC-fp4eN7H1UGaaumiXfAQQIq5-18IyuomYIkTSBCnAnI3WLYfk017v1h6M-Qd5gH7FzKD4Pb8cG8MJJI112B2Q-9OBKHFESvf2H2xblJKtauLWogpDTs14ZrAceNb4H1Jf3F9ZGWLFAPh_U1IHbUJCkWYwF3LKzUChbOreMzLv5cRR3dQh5Hd3hKcS0uWoDs4crIO_9TQ0Cud97Wl56TGnVefCGHJkX3a-N5eyX86mdDw5iRwFo1KLAwg-Wc1WwdGbKVbUduxyo9QoIDZ8g2ZhPyEa0Uc714Bxd2m1y5Wg7dpV5w19Re-voV4H7fMLA3VTCIxzDs9Aiz0xuMVGphEnO5BcZcq9h229oBNviZGeUC8m9dHt_SkO6UpX_ILLGEA4AhMN-HP59akQmUd8-T3Dn5A2hY2YWgcjybUjyIA2RB2NQ3QyuqmlAx8lWI-MkbhB-Hm9kw4-viK5yoOTZDB3kCYH7Vgxrw96ZF5GIwLNuD3RD7ZFoVCghTstML_M_bsTlI7EmGWqvObjlef4Pvxqc4nG2ES7X2hIYhQKEsJLLkJZp9uo5Y9doAnXHPD2WuSA6TlIEYOfpIRy4Shq7vNgUuhJKil3U4d50gnwwBlIeLKbw68DwP6T9jHresEisxKTw7vAoty6awvjp_TIx05CT5AOPUZ5AmKotbdrnUjWhxniq8R9ZfoyGIFs6Fp8VMmO3MYap7g_2-0cZekC2bslLilzqt9ByHG1dwTVhiSfNS2d158SWzxadz8S9vkTwNihqzshk9y2LKKEK-pntltVVrXKjuZMEOrD9kevqIwQrip4nXuEmTTCoByA67ta-k4_OC1V3tYmzt_34dKr5VYYzfwCqyp5OxEoHxbyapfx6WwzDv70I-l9oTEv__uN-9jMh_Lc2Thlc_L1zM5hZ3O6iCKsMtqdjAq7TeFh_0bi9ksxRKmpEkC9RWSjawQU4ASKD0cv2xcte1TAoPZtceU3jbau79vlw4yYylohx8hdtxiLRAK8Veo2RHX46sUQSNNRtw6mqtxRv6gSi3t5dd__0G00]--></g></svg>